<svg xmlns="http://www.w3.org/2000/svg" viewBox="0 0 64 64">
  <path d="M17.438 6a.5.5 0 0 0-.188.125L15.375 8H6.531a2.506 2.506 0 0 0-2.5 2.5v17c0 1.376 1.124 2.5 2.5 2.5h24.125c1.377 0 2.5-1.124 2.5-2.5v-17c0-1.376-1.123-2.5-2.5-2.5h-4.843l-1.907-1.875A.5.5 0 0 0 23.563 6h-5.97a.5.5 0 0 0-.155 0zm.343 1h5.594l1.875 1.844a.5.5 0 0 0 .344.156h5.062c.84 0 1.5.66 1.5 1.5v17c0 .84-.66 1.5-1.5 1.5H6.531c-.84 0-1.5-.66-1.5-1.5v-17c0-.84.66-1.5 1.5-1.5h9.094a.5.5 0 0 0 .344-.156L17.78 7zm-9.375 5a.5.5 0 0 0-.375.5v3a.5.5 0 0 0 .5.5h4a.5.5 0 0 0 .5-.5v-3a.5.5 0 0 0-.5-.5h-4a.5.5 0 0 0-.125 0zm15.75.563A6.43 6.43 0 0 0 17.72 19a6.43 6.43 0 0 0 6.437 6.438A6.43 6.43 0 0 0 30.594 19a6.43 6.43 0 0 0-6.438-6.438zM9.031 13h3v2h-3v-2zm15.125.531a5.469 5.469 0 1 1 0 10.937 5.469 5.469 0 0 1 0-10.937zm0 1.969a3.508 3.508 0 0 0-3.5 3.5c0 1.927 1.573 3.5 3.5 3.5s3.5-1.573 3.5-3.5-1.573-3.5-3.5-3.5zm0 .969c1.387 0 2.5 1.144 2.5 2.531 0 1.387-1.113 2.531-2.5 2.531A2.546 2.546 0 0 1 21.625 19a2.546 2.546 0 0 1 2.531-2.531zM8.438 17a.506.506 0 1 0 .156 1h4a.5.5 0 1 0 0-1h-4a.5.5 0 0 0-.156 0z" color="#000" font-family="Sans" font-weight="400" overflow="visible" style="text-indent:0;text-align:start;line-height:normal;text-transform:none;block-progression:tb;marker:none;-inkscape-font-specification:Sans"/>
</svg>
