<svg xmlns="http://www.w3.org/2000/svg" width="64" height="64" id="camera"><path d="M6.5 7A2.506 2.506 0 0 0 4 9.5v17C4 27.876 5.124 29 6.5 29h24c1.376 0 2.5-1.124 2.5-2.5v-17C33 8.124 31.876 7 30.5 7h-24zm0 1h24c.84 0 1.5.66 1.5 1.5v17c0 .84-.66 1.5-1.5 1.5h-24c-.84 0-1.5-.66-1.5-1.5v-17C5 8.66 5.66 8 6.5 8zm8.844 5.094a.478.523 0 0 0-.344.5l.031 8.812a.478.523 0 0 0 .688.438l6.969-4.438a.478.523 0 0 0 .125-.781.478.523 0 0 0-.125-.094l-6.97-4.375a.478.523 0 0 0-.374-.062zm.625 1.437L21.5 17.97 15.969 21.5v-6.969z" color="#000" font-family="Sans" font-weight="400" overflow="visible" style="text-indent:0;text-align:start;line-height:normal;text-transform:none;block-progression:tb;marker:none;-inkscape-font-specification:Sans"></path></svg>