<svg xmlns="http://www.w3.org/2000/svg" viewBox="0 0 32 32">
  <g fill-rule="evenodd" color="#000">
    <path d="M123 71a1 1 0 0 0-1 1 1 1 0 0 0 1 1h10a1 1 0 0 0 1-1 1 1 0 0 0-1-1zm0-4a1 1 0 0 0-1 1 1 1 0 0 0 1 1h10a1 1 0 0 0 1-1 1 1 0 0 0-1-1zm0 8a1 1 0 0 0-1 1 1 1 0 0 0 1 1h10a1 1 0 0 0 1-1 1 1 0 0 0-1-1z" style="-inkscape-stroke:none" transform="translate(-108 -52)"/>
    <path d="M113 54c-1.645 0-3 1.355-3 3v14c0 1.645 1.355 3 3 3h1v1c0 1.645 1.355 3 3 3h1v1c0 1.645 1.355 3 3 3h14c1.645 0 3-1.355 3-3V65c0-1.645-1.355-3-3-3h-1v-1c0-1.645-1.355-3-3-3h-1v-1c0-1.645-1.355-3-3-3zm0 2h14c.571 0 1 .429 1 1v1h-11c-1.645 0-3 1.355-3 3v11h-1c-.571 0-1-.429-1-1V57c0-.571.429-1 1-1zm4 4h14c.571 0 1 .429 1 1v1h-11c-1.645 0-3 1.355-3 3v11h-1c-.571 0-1-.429-1-1V61c0-.571.429-1 1-1zm4 4h14c.571 0 1 .429 1 1v14c0 .571-.429 1-1 1h-14c-.571 0-1-.429-1-1V65c0-.571.429-1 1-1z" style="-inkscape-stroke:none" transform="translate(-108 -52)"/>
  </g>
</svg>
